<?xml version="1.0" encoding="utf-8"?>
<!-- Generator: Adobe Illustrator 16.0.0, SVG Export Plug-In . SVG Version: 6.00 Build 0)  -->
<!DOCTYPE svg PUBLIC "-//W3C//DTD SVG 1.1//EN" "http://www.w3.org/Graphics/SVG/1.1/DTD/svg11.dtd">
<svg version="1.1" id="Layer_1" xmlns="http://www.w3.org/2000/svg" xmlns:xlink="http://www.w3.org/1999/xlink" x="0px" y="0px"
	 width="1000px" height="830.498px" viewBox="0 0 1000 830.498" enable-background="new 0 0 1000 830.498" xml:space="preserve">
<g>
	<path fill="#010101" d="M530.884,123.029c-26.388-4.041-48.952,7.092-68.167,23.777c-19.702,18.534-32.185,43.313-26.587,71.153
		c4.178,18.992,24.148,33.21,41.36,36.478c31.928,4.036,61.508-9.341,81.956-36.478c12.821-17.704,19.941-45.052,8.905-66.07
		C560.177,136.966,546.888,125.81,530.884,123.029"/>
	<polygon fill="#010101" points="793.758,604.441 334.978,653.826 908.944,717.623 908.944,643.464 	"/>
	<g>
		<path fill="#010101" d="M159.215,676.572c-16.989,11.197-28.98,30.406-24.887,51.676c2.742,15.42,16.524,28.047,30.067,34.104
			c7.115,3.605,11.03,5.619,20.469,9.156c5.123,3.549-5.679,3.023-9.439,4.557L0,801.878v28.619h1000v-77.924l-758.287-86.361
			C215.67,661.439,180.205,662.882,159.215,676.572"/>
		<path fill="#010101" d="M750.966,165.077c4.35-6.56,9.593-8.661,16.187-8.661c6.16-0.246,14.768,2.593,21.923,5.616l40.078,17.727
			l-10.027-44.034l-68.16-32.683V165.077z"/>
		<path fill="#010101" d="M353.478,601.451c11.453-1.533,16.742-15.545,16.765-29.672l0.08-45.504l-33.313-12.523l-0.109,62.838
			C336.878,590.531,342.001,602.974,353.478,601.451"/>
		<path fill="#010101" d="M435.443,525.646l-0.12,65.207l14.361-1.912c15.729-2.096,25.637-18.156,25.671-36.611
			c0.034-19.186-9.015-31.561-25.425-28.975L435.443,525.646z"/>
		<path fill="#010101" d="M642.682,464.605c0.126,0.047,0.239,0.07,0.343,0.104l-0.32-0.104H642.682z"/>
		<path fill="#010101" d="M620.256,495.789c-17.573,2.783-28.711,18.615-28.758,39.826c-0.044,21.008,11.07,33.807,28.643,31.471
			c17.63-2.334,29.169-18.43,29.203-39.906C649.378,505.542,637.908,492.996,620.256,495.789"/>
	</g>
	<polygon fill="#010101" points="739.22,342.871 753.576,315.219 711.585,299.433 711.436,299.467 	"/>
	<g>
		<path fill="#010101" d="M934.3,589.009c-19.208,4.039-31.755-6.354-36.391-21.283c-1.512-4.508,0.457-5.836,5.379-6.799
			c14.757-2.254,29.994-5.541,44.785-8.666c7.098-1.225,6.662,1.02,6.387,4.613C957.46,570.269,947.866,585.22,934.3,589.009
			 M104.061,596.873c-4.407,10.852-15.168,18.225-26.33,18.443c-11.534,1.041-21.642-3.264-27.292-16.715
			c-3.938-9.879-5.111-24.76,1.488-23.25c17.973,2.221,34.257,6.354,51.675,10.326C108.313,587.189,105.382,593.048,104.061,596.873
			 M660.413,166.061l22.851-5.295v24.286l19.953-5.048v22.014l-19.953,4.373v55.899l-22.851,5.266V166.061z M879.181,0
			l51.17,534.345c0.779,5.277,0.275,12.432-6.594,14.148c-5.403,2.063-8.883-1.717-10.611-5.287l-15.157-65.939l-102.331-40.73
			l-40.308,6.777c10.396,1.213,19.68,5.299,27.452,12.215l-14.723,25.699c-9.375-8.025-22.746-7.281-32.477-5.734
			c-9.364,1.486-12.959,6.742-12.971,12.648c-0.012,7.145,6.674,8.563,18.855,9.594c18.305,1.969,43.146,3.721,43.089,35.168
			c-0.023,11.744-2.907,22.139-8.403,30.541l-81.096,10.098c-1.533-1.316-2.987-2.725-4.373-4.213l13.429-25.621
			c7.739,8.668,20.995,11.643,35.935,9.664c9.799-1.283,15.798-7.236,15.81-13.83c0.012-7.83-7.144-9.936-18.89-11.355
			c-18.008-1.945-42.081-3-42.023-34.893c0.01-4.213,0.525-8.404,1.533-12.479l-52.785-15.912
			c20.927,6.457,35.248,27.588,35.19,57.982c-0.034,22.004-7.612,41.338-19.748,55.121l-77.214,9.617
			c-11.346-10.43-18.26-27.098-18.215-47.979c0.024-18.328,5.427-34.996,14.448-48.092L544.243,478.8l-0.311,0.047l-0.193,113.527
			l-24.452,3.035l0.148-84.807l-49.06-14.814c17.303,5.955,28.567,24.43,28.534,53.119c-0.052,21.418-6.383,39.037-16.777,51.137
			l-69.362,8.621l0.178-96.791l-20.211-7.59l-0.211,0.033l-0.104,67.279c-0.04,15.373-3.262,29.902-10.005,40.846l-57.364,7.143
			c-6.405-9.021-9.393-22.242-9.37-36.861l0.098-56.689l-16.296-6.066h-0.022l2.787,26.764l-21.911,3.469l-0.137,74.959
			l-19.919,2.484l0.132-74.297l-21.299,3.367l1.368-13.439l-24.847-7.498l-0.051,0.057c5.666,1.65,10.749,4.969,15.11,9.914
			l-9.701,20.537c-6.205-6.754-15.042-6.48-21.488-5.449c-6.216,0.984-8.607,5.174-8.62,9.994
			c-0.012,5.814,4.441,7.131,12.524,8.242c12.095,2.025,28.482,4.008,28.436,29.525c-0.012,8.857-1.654,16.713-4.808,23.191
			l-55.54,6.904c-0.646-0.744-1.276-1.512-1.865-2.326l8.947-20.65c5.146,7.236,13.949,9.924,23.869,8.609
			c6.467-0.848,10.452-5.564,10.452-10.934c0.011-6.365-4.723-8.219-12.496-9.627c-11.946-1.969-27.966-3.344-27.921-29.387
			c0.011-8.803,2.249-17.412,6.576-24.35l-17.995-6.801l-0.269-23.215l634.862-112.256l95.051,37.846l-32.433-141.111
			l-59.917-23.382l-45.424,87.987l-0.069,34.487l-27.039,4.819l0.046-34.137l-33.027-52.082l-30.072-9.073l-0.115,0.011
			c4.236,1.123,7.809,3.045,10.625,5.821c2.963,2.931,5.196,6.566,6.707,10.927c1.512,4.35,2.267,11.699,2.255,17.045
			c-0.022,9.554-2.071,20.211-6.124,26.937c-3.617,5.97-8.723,12.203-15.341,16.039l18.181,26.868l-30.658,5.449l-16.575-24.722
			l-0.047,27.693l-25.688,4.578l0.159-98.067l-16.942-6.365l-0.137,72.045c-0.023,14.533-1.878,27.017-7.431,36.726l-66.511,11.848
			c-5.3-7.557-7.04-18.998-7.019-32.89l0.115-63.008l-12.964-4.865l1.906,26.645l-25.225,5.146l-0.125,76.688l-22.839,4.076
			l0.131-76.1l-24.853,5.066l1.385-19.227l-12.146-4.556L413.32,464.08l-28.476,5.082l-38.516-43.936l-0.086,50.816l-21.802,3.893
			l0.154-88.6l-17.257-6.485l4.036,24.138l-45.556,9.295l-0.035,18.633l37.279-7.402l-0.051,24.836l-37.264,7.109l-0.034,19.221
			l46.078-8.529l-1.7,10.338l-65.172,11.607l0.137-81.17l-24.521-7.241c6.056,1.923,11.196,5.38,14.968,9.198l-10.022,22.021
			c-5.369-6.365-12.987-7.002-19.599-5.656c-12.18,2.484-21.092,15.924-21.126,32.877c-0.035,16.943,9.392,26.307,21.584,24.041
			c7.241-1.352,14.522-6.824,19.072-13.084l9.959,18.121c-0.71,0.996-1.488,2.004-2.272,3l-56.174,10.006
			c-7.687-8.334-12.461-21.592-12.438-38.328c0.035-17.789,5.181-33.701,13.492-45.191l-18.025-6.792v-21.528l641.68-144.991
			l48.549,20.257l-17.776-76.465l-44.097-18.746v63.535l-22.851,4.574v-43.788c-0.239-7.43,3.274-18.494-5.449-16.468
			c-3.606,0-9.776,4.574-10.279,8.334v56.197l-25.369,5.558V151.425l-102.64-44.56l-6.868-1.534
			c9.1,13.903,14.743,29.409,17.938,45.807c6.17,58.487-23.364,106.316-70.14,138.993l-88.302,21.248
			c-29.352,2.798-57.404-8.117-77.392-31.173c-23.331-28.579-25.311-72.647-14.241-108.072l-19.696-9.553
			c28.298,71.062-62.259,124.494-71.32,149.816l76.253-16.507v40.021l-187.089,44.085v-25.832l99.738-113.734
			c14.733-16.645,33.49-30.805,27.754-47.484c-2.157-5.827-8.356-8.667-13.234-10.423c-15.528-2.988-28.389,3.571-39.431,13.142
			c-8.352,8.414-12.02,19.295-12.547,24.813l-60.73,13.903c2.215-15.872,4.923-27.314,10.292-39.923
			c16.737-36.227,53.392-63.855,90.826-69.093c40.886-6.902,68.727,20.75,104.364,33.153c16.221-28.9,43.599-59.271,72.08-74.994
			c37.503-23.245,92.349-21.952,132.222-5.049l122.365,52.9l10.543,3.823V99.47l24.384-11.104l65.984,31.91L788.09,0.802H196.924
			L92.286,560.423c-1.733,5.586-8.322,8.334-13.502,7.064c-5.002-2.004-7.406-5.336-7.406-12.387L96.018,0.802H0v783.62
			l49.243-7.086v-126.59c0.458-9.627,10.143-13.668,20.657-13.668c13.011,0,22.386,5.094,22.386,12.455v121.484l44.795-6.596
			c-16.004-16.162-25.592-38.727-20.125-62.287c5.861-25.563,31.659-46.1,55.584-50.357l164.607-19.998l445.529-53.154l18.271-1.053
			c35.373,11.93,67.403,26.078,103.602,37.525c6.833,3.299,3.423-5.334,4.899-7.898c1.786-4.557,6.193-5.518,9.821-7.303
			c11.86-4.281,28.804-2.52,36.679,8.836l0.274,113.414l43.777,6.846V0H879.181z"/>
	</g>
	<polygon fill="#010101" points="390.803,435.787 390.871,395.496 342.563,377.34 342.144,377.42 	"/>
	<g>
		<path fill="#010101" d="M652.503,363.717c2.072-2.438,4.042-6.52,4.042-11.476c0.022-4.969-1.466-7.161-3.549-8.935
			c-2.794-2.353-5.564-2.118-13.726-0.458l-7.452,1.528l-0.048,26.479l7.442-1.465C647.523,367.747,649.882,366.814,652.503,363.717
			"/>
		<path fill="#010101" d="M548.158,426.371c14.126-2.621,15.797-13.233,15.82-27.509l0.08-49.202l-32.191-12.106l-0.115,67.519
			C531.729,419.222,534.008,428.998,548.158,426.371"/>
		<path fill="#010101" d="M219.207,405.295l-0.023-0.012C219.195,405.295,219.207,405.295,219.207,405.295"/>
	</g>
</g>
</svg>
