<?xml version="1.0" standalone="no"?>
<!DOCTYPE svg PUBLIC "-//W3C//DTD SVG 20010904//EN"
 "http://www.w3.org/TR/2001/REC-SVG-20010904/DTD/svg10.dtd">
<svg version="1.0" xmlns="http://www.w3.org/2000/svg"
 width="300.000000pt" height="300.000000pt" viewBox="0 0 300.000000 300.000000"
 preserveAspectRatio="xMidYMid meet">

<g transform="translate(0.000000,300.000000) scale(0.100000,-0.100000)"
fill="#000000" stroke="none">
<path d="M253 1950 c-94 -19 -178 -87 -221 -180 -30 -65 -35 -172 -9 -232 15
-35 15 -41 0 -75 -9 -22 -16 -67 -16 -105 0 -121 66 -222 183 -280 43 -22 56
-23 372 -26 210 -2 340 1 366 7 55 15 109 76 117 134 12 78 -38 160 -114 186
-22 7 -141 11 -350 11 -340 1 -359 3 -426 54 -56 43 -60 59 -24 96 17 17 50
41 73 53 39 21 54 22 386 27 322 5 347 6 378 25 49 29 76 79 76 140 0 84 -49
147 -130 165 -48 12 -603 11 -661 0z m703 -84 c28 -28 34 -41 34 -78 0 -47
-18 -80 -53 -100 -16 -10 -116 -14 -367 -18 -334 -5 -346 -6 -387 -28 -23 -12
-58 -36 -77 -52 -40 -36 -46 -29 -46 58 1 99 53 182 142 226 l52 26 334 0 334
0 34 -34z m-850 -447 c32 -35 96 -67 158 -78 34 -6 189 -11 362 -11 l302 0 31
-31 c26 -26 31 -38 31 -79 0 -39 -5 -54 -28 -78 -16 -17 -44 -33 -63 -37 -19
-3 -172 -5 -339 -3 -336 3 -341 4 -415 69 -53 47 -85 119 -85 195 0 79 11 92
46 53z"/>
<path d="M1701 1939 c-172 -30 -315 -168 -352 -340 -58 -270 151 -529 426
-529 74 0 173 28 231 66 l41 27 -18 48 c-23 60 -13 63 22 6 16 -27 50 -60 89
-85 188 -126 430 -95 579 74 l41 47 0 -76 c0 -102 6 -107 120 -107 67 0 92 4
104 16 14 13 16 66 16 420 0 478 9 444 -118 444 -109 0 -122 -11 -122 -99 0
-37 5 -82 11 -100 14 -38 4 -55 -10 -18 -15 38 -75 101 -132 137 -138 90 -326
92 -471 7 -143 -83 -236 -284 -207 -441 12 -67 5 -80 -70 -124 -81 -47 -205
-29 -267 40 -84 92 -82 219 5 309 55 56 110 75 186 64 105 -15 105 -16 152 50
66 93 57 117 -57 149 -78 21 -137 26 -199 15z m759 -229 c18 -11 32 1 -133
-109 -171 -114 -171 -114 -162 -70 17 78 69 144 135 173 39 17 137 21 160 6z
m300 -215 c0 -80 -2 -145 -5 -145 -3 0 -33 11 -67 25 -34 14 -65 25 -70 25 -5
0 -30 -20 -56 -44 -26 -24 -63 -52 -82 -62 -45 -23 -133 -24 -184 -1 l-40 18
245 164 c134 90 247 164 252 164 4 1 7 -64 7 -144z"/>
</g>
</svg>
