<?xml version="1.0" encoding="UTF-8" standalone="no"?>
<!-- Created with Inkscape (http://www.inkscape.org/) -->
<!-- viewBox fix by in[k]firmary (http://inkfirmary.48design.de) -->
<svg
   xmlns:svg="http://www.w3.org/2000/svg"
   xmlns="http://www.w3.org/2000/svg"
   xmlns:xlink="http://www.w3.org/1999/xlink"
   xmlns:sodipodi="http://sodipodi.sourceforge.net/DTD/sodipodi-0.dtd"
   xmlns:inkscape="http://www.inkscape.org/namespaces/inkscape"
   id="svg2"
   version="1.1"
   inkscape:version="0.47 r22583"
   width="100%"
   height="100%"
   xml:space="preserve"
   sodipodi:docname="Logo Technicolor.svg"
   viewBox="0 0 1050 130"><defs
     id="defs6"><linearGradient
       x1="0"
       y1="0"
       x2="1"
       y2="0"
       gradientUnits="userSpaceOnUse"
       gradientTransform="matrix(81.6164,97.2669,97.2669,-81.6164,410.321,721.081)"
       spreadMethod="pad"
       id="linearGradient174"><stop
         style="stop-opacity:1;stop-color:#faf9fa"
         offset="0"
         id="stop176" /><stop
         style="stop-opacity:1;stop-color:#1f1a19"
         offset="1"
         id="stop178" /></linearGradient><linearGradient
       x1="0"
       y1="0"
       x2="1"
       y2="0"
       gradientUnits="userSpaceOnUse"
       gradientTransform="matrix(-149.631,149.631,149.631,149.631,554.478,608.743)"
       spreadMethod="pad"
       id="linearGradient196"><stop
         style="stop-opacity:1;stop-color:#ffffff"
         offset="0"
         id="stop198" /><stop
         style="stop-opacity:1;stop-color:#1f1a19"
         offset="1"
         id="stop200" /></linearGradient><linearGradient
       inkscape:collect="always"
       xlink:href="#linearGradient196"
       id="linearGradient3337"
       gradientUnits="userSpaceOnUse"
       gradientTransform="matrix(17.95572,17.95572,17.95572,-17.95572,98.552844,796.72748)"
       spreadMethod="pad"
       x1="1.5416099"
       y1="24.492769"
       x2="9.6662292"
       y2="32.532627" /><linearGradient
       inkscape:collect="always"
       xlink:href="#linearGradient174"
       id="linearGradient2836"
       gradientUnits="userSpaceOnUse"
       gradientTransform="matrix(11.672028,-9.793968,-9.793968,-11.672028,112.0334,814.02632)"
       spreadMethod="pad"
       x1="47.145336"
       y1="-10.371834"
       x2="55.482922"
       y2="-9.8664885" /><linearGradient
       inkscape:collect="always"
       xlink:href="#linearGradient174"
       id="linearGradient2839"
       gradientUnits="userSpaceOnUse"
       gradientTransform="matrix(11.672028,-9.793968,-9.793968,-11.672028,112.0334,814.02632)"
       spreadMethod="pad"
       x1="47.145336"
       y1="-10.371834"
       x2="55.482922"
       y2="-9.8664885" /><linearGradient
       inkscape:collect="always"
       xlink:href="#linearGradient196"
       id="linearGradient2860"
       gradientUnits="userSpaceOnUse"
       gradientTransform="matrix(17.95572,17.95572,17.95572,-17.95572,98.552844,796.72748)"
       spreadMethod="pad"
       x1="1.5416099"
       y1="24.492769"
       x2="9.6662292"
       y2="32.532627" /><linearGradient
       inkscape:collect="always"
       xlink:href="#linearGradient196"
       id="linearGradient2863"
       gradientUnits="userSpaceOnUse"
       gradientTransform="matrix(17.95572,17.95572,17.95572,-17.95572,98.552844,796.72748)"
       spreadMethod="pad"
       x1="1.5416099"
       y1="24.492769"
       x2="9.6662292"
       y2="32.532627" /></defs><sodipodi:namedview
     pagecolor="#ffffff"
     bordercolor="#666666"
     borderopacity="1"
     objecttolerance="10"
     gridtolerance="10"
     guidetolerance="10"
     inkscape:pageopacity="0"
     inkscape:pageshadow="2"
     inkscape:window-width="1680"
     inkscape:window-height="1000"
     id="namedview4"
     showgrid="false"
     inkscape:zoom="1.3705443"
     inkscape:cx="643.75239"
     inkscape:cy="67.243789"
     inkscape:window-x="-8"
     inkscape:window-y="-8"
     inkscape:window-maximized="1"
     inkscape:current-layer="svg2" /><g
     id="g12"
     inkscape:groupmode="layer"
     inkscape:label="Logo Technicolor"
     transform="matrix(1.25,0,0,-1.25,-33.90625,594.48105)"><path
       style="fill:#1f1a19;fill-opacity:1;fill-rule:nonzero;stroke:none"
       d="m 292.22352,468.11 0,-43.2 11.575,0 0,20.2 28.1,-21.975 0,43.25 -11.575,0 0,-20.175 -28.1,21.9 z m -112.2,-0.65 c -15.492,0 -24.25,-10.4754 -24.25,-21.825 0,-11.2896 8.7532,-21.825 24.25,-21.825 7.1952,0 13.2116,2.3932 17.45,6.25 l -8.025,7.35 c -2.2572,-2.3868 -5.6162,-3.675 -9.425,-3.675 -7.674,0 -12.45,5.0972 -12.45,11.9 0,6.8088 4.776,11.925 12.45,11.925 3.8088,0 7.1368,-1.318 9.4,-3.7 l 8.025,7.375 c -4.1748,3.8172 -10.1254,6.225 -17.425,6.225 z m 246.25,0 c -15.4932,0 -24.275,-10.4754 -24.275,-21.825 0,-11.2896 8.7818,-21.825 24.275,-21.825 7.2,0 13.1866,2.3932 17.425,6.25 l -8.025,7.35 c -2.262,-2.3868 -5.5876,-3.675 -9.4,-3.675 -7.6692,0 -12.45,5.0972 -12.45,11.9 0,6.8088 4.7808,11.925 12.45,11.925 3.8076,0 7.1368,-1.318 9.4,-3.7 l 8,7.375 c -4.1736,3.8172 -10.0968,6.225 -17.4,6.225 z m 60.625,0 c -15.5028,0 -24.25,-10.4766 -24.25,-21.825 0,-11.2896 8.7472,-21.825 24.25,-21.825 14.5668,0 24.275,9.7326 24.275,21.825 0,11.64 -9.2714,21.825 -24.275,21.825 z m 128.35,0 c -15.498,0 -24.275,-10.4766 -24.275,-21.825 0,-11.2896 8.777,-21.825 24.275,-21.825 14.5728,0 24.25,9.7326 24.25,21.825 0,11.64 -9.2416,21.825 -24.25,21.825 z m -580.675,-1.075 0,-9.45 13.925,0 0,-32.025 11.575,0 0,32.025 13.925,0 0,9.45 -39.425,0 z m 62.05,0 0,-41.475 36,0 0,9 -24.425,0 0,7.575 18.025,0 0,9 -18.025,0 0,6.875 24.425,0 0,9.025 -36,0 z m 124.275,0 0,-41.475 11.575,0 0,16.55 16.525,0 0,-16.55 11.575,0 0,41.475 -11.575,0 0,-15.5 -16.525,0 0,15.5 -11.575,0 z m 142.65,0 0,-41.475 11.6,0 0,41.475 -11.6,0 z m 174.5,0 0,-41.475 35.65,0 0,9.425 -24.075,0 0,32.05 -11.575,0 z m 128.3,0 0,-41.475 11.35,0 0,11.85 5.4,0 9.8,-11.85 14.25,0 -12.025,13.6 c 1.6092,0.6672 9.025,3.9584 9.025,12.95 0,7.1748 -4.6794,14.925 -18.975,14.925 l -18.825,0 z m -179.45,-8.825 c 7.026,0 12.475,-4.4442 12.475,-11.925 0,-7.482 -5.4538,-11.9 -12.475,-11.9 -7.6704,0 -12.45,5.096 -12.45,11.9 0,6.8028 4.7796,11.925 12.45,11.925 z m 128.35,0 c 7.032,0 12.45,-4.4442 12.45,-11.925 0,-7.482 -5.418,-11.9 -12.45,-11.9 -7.6692,0 -12.45,5.096 -12.45,11.9 0,6.8028 4.7808,11.925 12.45,11.925 z m 62.45,-0.45 7.3,0 c 4.2384,0 7.325,-1.9994 7.325,-5.525 0,-3.4704 -2.9774,-5.55 -7.325,-5.55 l -7.3,0 0,11.075 z m 38.6,-21.2 c -3.0996,0 -5.6,-2.5256 -5.6,-5.6 0,-3.1044 2.5004,-5.625 5.6,-5.625 3.0936,0 5.6,2.5206 5.6,5.625 0,3.0744 -2.5064,5.6 -5.6,5.6 z m 0,-0.75 c 2.7228,0 4.725,-2.132 4.725,-4.85 0,-2.7528 -2.0022,-4.875 -4.725,-4.875 -2.7336,0 -4.725,2.1222 -4.725,4.875 0,2.718 1.9914,4.85 4.725,4.85 z m -2.075,-1.725 0,-6.25 0.775,0 0,2.875 1.4,0 1.8,-2.875 0.9,0 -1.875,2.875 c 1.104,0.03 1.95,0.4974 1.95,1.725 0,1.0296 -0.5464,1.65 -2.2,1.65 l -2.75,0 z m 0.775,-0.55 1.775,0 c 0.7716,0 1.575,-0.1042 1.575,-1.075 0,-1.2768 -1.2894,-1.125 -2.175,-1.125 l -1.175,0 0,2.2 z"
       id="wordmark" /><path
       style="fill:url(#linearGradient2839);fill-opacity:1;fill-rule:nonzero;stroke:none"
       d="m 749.22368,444.22484 c 0.8213,11.12868 5.51118,22.44077 14.54984,29.32362 -2.2807,-3.1002 -5.54321,-7.26267 -6.47846,-11.67462 -2.8856,-11.82468 1.69153,-24.06849 7.73695,-34.12067 9.7608,-15.86812 24.15009,-28.55321 40.46258,-37.35742 13.14193,-6.85064 28.72403,-11.52763 43.48206,-7.43388 2.29935,0.22653 10.10891,5.28047 5.0564,1.2436 -9.86901,-7.93549 -22.83206,-11.93628 -35.49397,-10.3452 -17.69307,2.11951 -34.00008,11.02341 -46.9879,22.94207 -11.7084,10.9619 -21.10932,25.43293 -22.3275,41.7825"
       id="roll" /><path
       style="fill:url(#linearGradient2863);fill-opacity:1;fill-rule:nonzero;stroke:none"
       d="m 565.14368,384.58484 c 84.72,0 169.44,0 254.16,0 6.00337,-2.03409 13.05472,-3.53813 21.24,-3 6.21093,0.30907 11.17684,1.86316 15.12,4.44 1.01092,0.075 -0.88602,-1.352 -1.32,-1.68 -2.88428,-1.99572 -5.65214,-4.10786 -9,-5.64 -3.60628,-2.03372 -7.91744,-3.36256 -12.48,-4.44 -9.89793,-1.3981 -22.15556,-0.43652 -33.16812,-0.72 -76.78396,0 -153.56792,0 -230.35188,0 -1.37811,3.65351 -2.73027,7.3614 -4.2,10.92"
       id="filmstrip"
       sodipodi:nodetypes="cccccccccc" /><path
       id="slice_red"
       style="fill:#ae1934;fill-opacity:1;fill-rule:nonzero;stroke:none"
       d="m 815.43008,439.24244 c -7.8528,9.3492 -13.8936,17.2512 -15.9636,20.2224 -1.5,2.1636 -3.654,4.5456 -3.654,7.4472 0,2.46 2.154,4.6536 5.7384,4.6536 8.6412,0 18.39,-7.7532 18.39,-15.5076 0,-3.8724 -2.406,-11.2104 -4.5108,-16.8156" /><path
       id="slice_purple"
       style="fill:#68338b;fill-opacity:1;fill-rule:nonzero;stroke:none"
       d="m 818.45048,436.61804 c 1.5204,3.8328 3.8868,8.9184 5.3976,11.7648 2.2272,4.1988 4.5744,4.6752 6.4212,4.6752 6.438,0 17.088,-9.0216 17.088,-16.2312 0,-1.6692 -1.0896,-3.9864 -4.4568,-3.9864 -3.0048,0 -16.1016,2.0844 -24.45,3.7776" /><path
       id="slice_blue"
       style="fill:#234f9d;fill-opacity:1;fill-rule:nonzero;stroke:none"
       d="m 841.36088,410.10884 c -1.9908,2.0292 -7.8288,7.7532 -20.6472,22.8312 5.5356,-1.1544 12.9972,-2.9172 18.4392,-4.3968 15.81,-4.2888 20.5236,-12.1908 20.5236,-18.4152 0,-4.1844 -2.892,-6.7044 -6.492,-6.7044 -5.208,0 -8.4708,3.258 -11.8236,6.6852" /><path
       id="slice_green"
       style="fill:#1f823d;fill-opacity:1;fill-rule:nonzero;stroke:none"
       d="m 816.63368,431.77124 c 6.8724,-8.388 11.9424,-14.736 17.2908,-21.8952 2.6688,-3.5796 5.5548,-7.1112 5.5548,-12.102 0,-4.7436 -3.5004,-8.472 -9.294,-8.472 -10.4676,0 -18.8352,9.7404 -18.8352,19.8996 0,5.2344 2.808,15.8748 5.2836,22.5696" /><path
       id="slice_yellow"
       style="fill:#f5ba0b;fill-opacity:1;fill-rule:nonzero;stroke:none"
       d="m 813.47888,434.37044 c -2.3016,-5.6196 -4.7436,-10.6944 -7.476,-15.2556 -3.6936,-6.1644 -8.1204,-7.794 -12.2256,-7.794 -10.8636,0 -19.8852,10.8 -19.8852,18.2568 0,5.1648 3.942,8.6556 10.4328,8.6556 6.576,0 23.6976,-2.8224 29.154,-3.8628" /><path
       id="slice_orange"
       style="fill:#ed6f17;fill-opacity:1;fill-rule:nonzero;stroke:none"
       d="m 792.18848,459.04844 c 4.2528,-4.1736 12.462,-13.1112 19.1124,-20.9196 -11.5968,2.604 -20.8512,5.2584 -28.278,7.7136 -11.046,3.66 -15.9732,9.8196 -15.9732,15.3648 0,3.6936 2.6388,6.6996 7.7988,6.6996 5.7132,0 12.2496,-3.8568 17.34,-8.8584" /></g></svg>