<?xml version="1.0" encoding="UTF-8" standalone="no"?>
<svg
   xmlns:dc="http://purl.org/dc/elements/1.1/"
   xmlns:cc="http://creativecommons.org/ns#"
   xmlns:rdf="http://www.w3.org/1999/02/22-rdf-syntax-ns#"
   xmlns:svg="http://www.w3.org/2000/svg"
   xmlns="http://www.w3.org/2000/svg"
   viewBox="0 0 793.33331 1122.6667"
   height="1122.6667"
   width="793.33331"
   xml:space="preserve"
   id="svg2"
   version="1.1"><metadata
     id="metadata8"><rdf:RDF><cc:Work
         rdf:about=""><dc:format>image/svg+xml</dc:format><dc:type
           rdf:resource="http://purl.org/dc/dcmitype/StillImage" /></cc:Work></rdf:RDF></metadata><defs
     id="defs6"><clipPath
       id="clipPath20"
       clipPathUnits="userSpaceOnUse"><path
         id="path18"
         d="M 0,112 H 594 V 730 H 0 Z" /></clipPath><clipPath
       id="clipPath30"
       clipPathUnits="userSpaceOnUse"><path
         id="path28"
         d="M 0,112 H 594 V 730 H 0 Z" /></clipPath><clipPath
       id="clipPath36"
       clipPathUnits="userSpaceOnUse"><path
         id="path34"
         d="M 0,129 H 594 V 730 H 0 Z" /></clipPath><clipPath
       id="clipPath40"
       clipPathUnits="userSpaceOnUse"><path
         id="path38"
         d="M 0,127.3157 H 594 V 730 H 0 Z" /></clipPath></defs><g
     transform="matrix(1.3333333,0,0,-1.3333333,0,1122.6667)"
     id="g10"><g
       id="g12" /><g
       id="g14"><g
         clip-path="url(#clipPath20)"
         id="g16"><path
           id="path22"
           style="fill:#176fc1;fill-opacity:1;fill-rule:nonzero;stroke:none"
           d="M 2960.381,1389.264 H 4377.846 V -60.20435 H 2960.381 Z" /></g></g><g
       id="g24"><g
         clip-path="url(#clipPath30)"
         id="g26"><g
           id="g32" /><g
           id="g200"><g
             id="g198"
             clip-path="url(#clipPath36)"><g
               id="g42" /><g
               id="g196"><g
                 id="g194"
                 clip-path="url(#clipPath40)"><path
                   id="path44"
                   style="fill:#0c3e6e;fill-opacity:1;fill-rule:nonzero;stroke:none"
                   d="m 256.9178,644.7839 c 0,-7.5655 -4.5614,-10.8035 -11.796,-10.8035 -2.6489,0 -6.5648,0.6375 -9.127,3.4821 -1.5595,1.7572 -2.1586,4.0753 -2.2373,6.9582 v 19.0407 h 6.1149 v -18.6372 c 0,-4.0046 2.3241,-5.7618 5.1223,-5.7618 4.1216,0 5.8002,2.0013 5.8002,5.4774 v 18.9216 h 6.1229 z" /><path
                   id="path46"
                   style="fill:#0c3e6e;fill-opacity:1;fill-rule:nonzero;stroke:none"
                   d="m 272.5147,638.786 c 3.6012,0 4.6018,3.9179 4.6018,6.4397 0,3.357 -1.2064,6.5164 -4.7591,6.5164 -3.8392,0 -4.7612,-3.4358 -4.7612,-6.8392 0,-3.1614 1.3557,-6.1169 4.9185,-6.1169 m -4.9185,14.1544 h 0.0787 c 1.041,1.6866 2.6005,3.6415 6.361,3.6415 4.6805,0 8.8425,-3.6011 8.8425,-10.9628 0,-5.8385 -2.6409,-11.4349 -8.9615,-11.4349 -3.924,0 -5.3201,2.1203 -6.004,3.2783 h -0.0786 v -11.0011 h -5.5965 v 29.5597 h 5.3584 z" /><path
                   id="path48"
                   style="fill:#0c3e6e;fill-opacity:1;fill-rule:nonzero;stroke:none"
                   d="m 298.8364,649.543 c -0.2441,1.3558 -0.7182,2.7982 -3.7605,2.7982 -3.0403,0 -3.4438,-1.158 -3.4438,-2.08 0,-3.357 13.3273,-0.9219 13.3273,-8.7638 0,-6.1935 -6.006,-7.3132 -9.3227,-7.3132 -4.8398,0 -10.0791,1.6785 -10.2446,7.3536 h 5.7599 c 0,-1.7976 1.1196,-3.1129 4.6421,-3.1129 2.885,0 3.5628,1.394 3.5628,2.199 0,3.5608 -13.2002,0.8735 -13.2002,8.8405 0,3.1209 1.961,7.1175 8.5964,7.1175 4.162,0 9.1189,-1.041 9.5607,-7.0389 z" /><path
                   id="path50"
                   style="fill:#0c3e6e;fill-opacity:1;fill-rule:nonzero;stroke:none"
                   d="m 314.7945,634.745 h -5.6025 v 21.2761 h 5.6025 z m 0,23.7979 h -5.6025 v 5.203 h 5.6025 z" /><path
                   id="path52"
                   style="fill:#0c3e6e;fill-opacity:1;fill-rule:nonzero;stroke:none"
                   d="m 320.3102,663.4695 h 5.6024 V 634.745 h -5.6024 z" /><path
                   id="path54"
                   style="fill:#0c3e6e;fill-opacity:1;fill-rule:nonzero;stroke:none"
                   d="m 340.9104,651.8611 c -4.3174,0 -5.1143,-3.7585 -5.1143,-6.4781 0,-2.7275 0.7969,-6.4861 5.1143,-6.4861 4.3193,0 5.1223,3.7586 5.1223,6.4861 0,2.7196 -0.803,6.4781 -5.1223,6.4781 m 0,-17.6769 c -5.7215,0 -10.8741,3.5144 -10.8741,11.1988 0,7.6845 5.1526,11.1989 10.8741,11.1989 5.7215,0 10.8841,-3.5144 10.8841,-11.1989 0,-7.6844 -5.1626,-11.1988 -10.8841,-11.1988" /><path
                   id="path56"
                   style="fill:#0c3e6e;fill-opacity:1;fill-rule:nonzero;stroke:none"
                   d="m 374.9468,634.745 h -5.5944 v 12.9158 c 0,1.5594 -0.0787,4.2003 -3.6415,4.2003 -2.4815,0 -4.398,-1.6785 -4.398,-4.9186 V 634.745 h -5.6025 v 21.2761 h 5.3583 v -3.119 h 0.0787 c 0.7646,1.2831 2.3645,3.6798 6.4074,3.6798 4.154,0 7.392,-2.4431 7.392,-7.1175 z" /><path
                   id="path58"
                   style="fill:#0c3e6e;fill-opacity:1;fill-rule:nonzero;stroke:none"
                   d="m 403.2698,650.0635 c 4.4767,0 4.4767,3.1997 4.4767,4.4768 0,2.7982 -1.5514,3.9643 -5.2716,3.9643 h -4.7612 v -8.4411 z m -5.5561,-15.3185 h -5.9958 v 28.7164 h 13.1134 c 5.5561,0 8.9212,-3.5628 8.9212,-9.1975 0,-2.6005 -1.4425,-9.1572 -9.1573,-9.1572 h -6.8815 z" /><path
                   id="path60"
                   style="fill:#0c3e6e;fill-opacity:1;fill-rule:nonzero;stroke:none"
                   d="m 423.7126,634.745 h -5.6024 v 21.2761 h 5.6024 z m 0,23.7979 h -5.6024 v 5.203 h 5.6024 z" /><path
                   id="path62"
                   style="fill:#0c3e6e;fill-opacity:1;fill-rule:nonzero;stroke:none"
                   d="m 461.7537,658.3775 h -15.2419 v -6.0363 h 13.9951 v -5.0819 h -13.9951 v -7.4404 h 15.9197 V 634.745 H 440.633 v 28.7245 h 21.1207 z" /><path
                   id="path64"
                   style="fill:#0c3e6e;fill-opacity:1;fill-rule:nonzero;stroke:none"
                   d="m 477.0258,638.786 c 3.6011,0 4.6018,3.9179 4.6018,6.4397 0,3.357 -1.1984,6.5164 -4.7592,6.5164 -3.8392,0 -4.7612,-3.4358 -4.7612,-6.8392 0,-3.1614 1.3558,-6.1169 4.9186,-6.1169 m -4.9186,14.1544 h 0.0868 c 1.0329,1.6866 2.5944,3.6415 6.3529,3.6415 4.6805,0 8.8425,-3.6011 8.8425,-10.9628 0,-5.8385 -2.6408,-11.4349 -8.9615,-11.4349 -3.9159,0 -5.318,2.1203 -5.9959,3.2783 h -0.0786 v -11.0011 h -5.6045 v 29.5597 h 5.3583 z" /><path
                   id="path66"
                   style="fill:#0c3e6e;fill-opacity:1;fill-rule:nonzero;stroke:none"
                   d="m 503.3475,649.543 c -0.2361,1.3558 -0.7182,2.7982 -3.7585,2.7982 -3.0424,0 -3.4378,-1.158 -3.4378,-2.08 0,-3.357 13.3192,-0.9219 13.3192,-8.7638 0,-6.1935 -6.0059,-7.3132 -9.3226,-7.3132 -4.8399,0 -10.0792,1.6785 -10.2366,7.3536 h 5.7599 c 0,-1.7976 1.1196,-3.1129 4.634,-3.1129 2.885,0 3.5629,1.394 3.5629,2.199 0,3.5608 -13.2002,0.8735 -13.2002,8.8405 0,3.1209 1.9609,7.1175 8.6044,7.1175 4.1539,0 9.1189,-1.041 9.5607,-7.0389 z" /><path
                   id="path68"
                   style="fill:#0c3e6e;fill-opacity:1;fill-rule:nonzero;stroke:none"
                   d="m 519.3055,634.745 h -5.6025 v 21.2761 h 5.6025 z m 0,23.7979 h -5.6025 v 5.203 h 5.6025 z" /><path
                   id="path70"
                   style="fill:#0c3e6e;fill-opacity:1;fill-rule:nonzero;stroke:none"
                   d="m 524.8293,663.4695 h 5.5944 V 634.745 h -5.5944 z" /><path
                   id="path72"
                   style="fill:#0c3e6e;fill-opacity:1;fill-rule:nonzero;stroke:none"
                   d="m 545.4295,651.8611 c -4.3254,0 -5.1223,-3.7585 -5.1223,-6.4781 0,-2.7275 0.7969,-6.4861 5.1223,-6.4861 4.3193,0 5.1142,3.7586 5.1142,6.4861 0,2.7196 -0.7949,6.4781 -5.1142,6.4781 m 0,-17.6769 c -5.7215,0 -10.8822,3.5144 -10.8822,11.1988 0,7.6845 5.1607,11.1989 10.8822,11.1989 5.7215,0 10.8761,-3.5144 10.8761,-11.1989 0,-7.6844 -5.1546,-11.1988 -10.8761,-11.1988" /><path
                   id="path74"
                   style="fill:#0c3e6e;fill-opacity:1;fill-rule:nonzero;stroke:none"
                   d="m 579.4659,634.745 h -5.6025 v 12.9158 c 0,1.5594 -0.0786,4.2003 -3.6415,4.2003 -2.4734,0 -4.396,-1.6785 -4.396,-4.9186 V 634.745 h -5.6045 v 21.2761 h 5.3584 v -3.119 h 0.0867 c 0.7566,1.2831 2.3564,3.6798 6.3994,3.6798 4.162,0 7.4,-2.4431 7.4,-7.1175 z" /><path
                   id="path76"
                   style="fill:#0c3e6e;fill-opacity:1;fill-rule:nonzero;stroke:none"
                   d="m 319.7513,599.6192 v -12.8754 h -5.9978 v 28.7164 h 5.9978 v -10.8761 h 11.207 v 10.8761 h 5.9958 v -28.7164 h -5.9958 v 12.8754 z" /><path
                   id="path78"
                   style="fill:#0c3e6e;fill-opacity:1;fill-rule:nonzero;stroke:none"
                   d="m 352.0386,603.8679 c -4.3274,0 -5.1223,-3.7585 -5.1223,-6.4861 0,-2.7195 0.7949,-6.478 5.1223,-6.478 4.3113,0 5.1143,3.7585 5.1143,6.478 0,2.7276 -0.803,6.4861 -5.1143,6.4861 m 0,-17.6849 c -5.7295,0 -10.8841,3.5144 -10.8841,11.1988 0,7.6845 5.1546,11.1989 10.8841,11.1989 5.7134,0 10.8741,-3.5144 10.8741,-11.1989 0,-7.6844 -5.1607,-11.1988 -10.8741,-11.1988" /><path
                   id="path80"
                   style="fill:#0c3e6e;fill-opacity:1;fill-rule:nonzero;stroke:none"
                   d="m 386.075,586.7438 h -5.6024 v 12.9238 c 0,1.5595 -0.0807,4.2003 -3.6415,4.2003 -2.4754,0 -4.3981,-1.6865 -4.3981,-4.9266 v -12.1975 h -5.6024 v 21.2761 h 5.3664 v -3.119 h 0.0787 c 0.7565,1.2831 2.3564,3.6798 6.3993,3.6798 4.16,0 7.4,-2.4351 7.4,-7.1176 z" /><path
                   id="path82"
                   style="fill:#0c3e6e;fill-opacity:1;fill-rule:nonzero;stroke:none"
                   d="m 400.9053,603.8679 c -4.3092,0 -5.1142,-3.7585 -5.1142,-6.4861 0,-2.7195 0.805,-6.478 5.1142,-6.478 4.3275,0 5.1244,3.7585 5.1244,6.478 0,2.7276 -0.7969,6.4861 -5.1244,6.4861 m 0,-17.6849 c -5.7134,0 -10.874,3.5144 -10.874,11.1988 0,7.6845 5.1606,11.1989 10.874,11.1989 5.7296,0 10.8922,-3.5144 10.8922,-11.1989 0,-7.6844 -5.1626,-11.1988 -10.8922,-11.1988" /><path
                   id="path84"
                   style="fill:#0c3e6e;fill-opacity:1;fill-rule:nonzero;stroke:none"
                   d="m 415.667,608.0199 h 5.3664 V 604.34 h 0.0787 c 1.158,2.1607 2.4432,4.2407 5.8405,4.2407 0.3612,0 0.7162,-0.0403 1.0794,-0.0787 v -5.6831 c -0.4802,0.0867 -1.0794,0.0867 -1.5999,0.0867 -4.3577,0 -5.1626,-2.7256 -5.1626,-5.0819 v -11.0799 h -5.6025 z" /><path
                   id="path86"
                   style="fill:#0c3e6e;fill-opacity:1;fill-rule:nonzero;stroke:none"
                   d="m 447.111,595.5843 c 0.0383,-1.5999 0.8433,-4.6402 6.0766,-4.6402 2.8446,0 6.0039,0.6779 6.0039,3.7182 0,2.2394 -2.1587,2.8386 -5.201,3.5628 l -3.0806,0.7162 c -4.6422,1.0814 -9.1189,2.1204 -9.1189,8.441 0,3.1997 1.7189,8.8425 11.0415,8.8425 8.8021,0 11.1585,-5.7618 11.1989,-9.2843 h -5.7619 c -0.1573,1.2851 -0.6375,4.3194 -5.8788,4.3194 -2.2777,0 -5.0033,-0.8352 -5.0033,-3.4357 0,-2.2475 1.844,-2.7196 3.0484,-3.002 l 6.9985,-1.7189 c 3.9159,-0.9542 7.5191,-2.5621 7.5191,-7.7147 0,-8.6448 -8.8042,-9.4094 -11.326,-9.4094 -10.4807,0 -12.2782,6.0443 -12.2782,9.6051 z" /><path
                   id="path88"
                   style="fill:#0c3e6e;fill-opacity:1;fill-rule:nonzero;stroke:none"
                   d="m 478.7124,603.8679 c -4.3275,0 -5.1223,-3.7585 -5.1223,-6.4861 0,-2.7195 0.7948,-6.478 5.1223,-6.478 4.3193,0 5.1142,3.7585 5.1142,6.478 0,2.7276 -0.7949,6.4861 -5.1142,6.4861 m 0,-17.6849 c -5.7215,0 -10.8842,3.5144 -10.8842,11.1988 0,7.6845 5.1627,11.1989 10.8842,11.1989 5.7215,0 10.876,-3.5144 10.876,-11.1989 0,-7.6844 -5.1545,-11.1988 -10.876,-11.1988" /><path
                   id="path90"
                   style="fill:#0c3e6e;fill-opacity:1;fill-rule:nonzero;stroke:none"
                   d="m 511.8268,594.5049 c -0.1977,-2.199 -1.9145,-8.3219 -9.716,-8.3219 -7.9992,0 -9.8432,6.1229 -9.8432,10.5997 0,6.8795 3.002,11.798 10.2043,11.798 3.357,0 8.8748,-1.5131 9.3932,-8.1565 h -5.673 c -0.2441,1.4021 -1.1197,3.6011 -3.7202,3.4437 -3.5225,0 -4.4445,-3.5224 -4.4445,-6.1633 0,-2.316 0.0787,-6.9198 4.3194,-6.9198 2.8446,0 3.7989,2.7195 3.7989,3.7201 z" /><path
                   id="path92"
                   style="fill:#0c3e6e;fill-opacity:1;fill-rule:nonzero;stroke:none"
                   d="m 521.5045,586.7438 h -5.5964 v 21.2761 h 5.5964 z m 0,23.7979 h -5.5964 v 5.203 h 5.5964 z" /><path
                   id="path94"
                   style="fill:#0c3e6e;fill-opacity:1;fill-rule:nonzero;stroke:none"
                   d="m 539.6212,599.5022 c -0.3147,3.4438 -2.5137,4.4828 -4.3173,4.4828 -2.6328,0 -4.0349,-1.6846 -4.3577,-4.4828 z m 5.5258,-6.5184 c -1.4828,-5.1223 -5.7215,-6.8008 -9.363,-6.8008 -5.9978,0 -10.5916,2.8768 -10.5916,11.6407 0,2.5601 0.8756,10.757 10.1982,10.757 4.1923,0 10.0005,-2.0013 10.0005,-11.7194 v -1.0006 h -14.6043 c 0.1594,-1.5999 0.4822,-5.1929 4.9972,-5.1929 1.5595,0 3.1674,0.7948 3.6012,2.316 z" /><path
                   id="path96"
                   style="fill:#0c3e6e;fill-opacity:1;fill-rule:nonzero;stroke:none"
                   d="m 555.3836,608.0199 h 3.4821 v -3.9946 h -3.4821 v -11.562 c 0,-1.2367 0.0383,-1.7169 2.3241,-1.7169 0.3551,0 0.7565,0.0384 1.158,0.0787 v -4.2407 c -0.8816,-0.0383 -1.7572,-0.0867 -2.6388,-0.0867 h -0.7182 c -4.846,0 -5.7215,1.846 -5.7215,4.6038 v 12.9238 h -2.883 v 3.9946 h 2.883 v 5.7618 h 5.5964 z" /><path
                   id="path98"
                   style="fill:#0c3e6e;fill-opacity:1;fill-rule:nonzero;stroke:none"
                   d="m 574.0672,587.1049 c -2.6388,-7.8801 -3.3631,-8.9211 -8.2413,-8.9211 -0.7565,0 -1.7189,0.0403 -2.5158,0.0786 v 4.4848 c 0.2381,-0.0464 0.5912,-0.0786 1.0733,-0.0786 2.0397,0 3.1674,0.2764 3.6879,3.1916 l -7.8499,22.1597 h 6.2501 l 4.5554,-15.6736 h 0.0787 l 4.3577,15.6736 h 5.9192 z" /><path
                   id="path100"
                   style="fill:#0c3e6e;fill-opacity:1;fill-rule:nonzero;stroke:none"
                   d="m 140.3636,270.9179 c 2.4512,0 5.5561,3.5608 5.5561,7.5735 0,4.0107 -3.1049,7.5735 -5.5561,7.5735 -2.4512,0 -5.556,-3.5628 -5.556,-7.5735 0,-4.0127 3.1048,-7.5735 5.556,-7.5735" /><path
                   id="path102"
                   style="fill:#0c3e6e;fill-opacity:1;fill-rule:nonzero;stroke:none"
                   d="m 138.441,140.7923 c -0.2925,-0.5044 -0.4499,-0.9865 -0.4499,-1.4425 0,-4.4142 12.7503,-10.1034 26.2753,-10.1034 13.531,0 26.2732,5.6892 26.2732,10.1034 0,0.4176 -0.119,0.8736 -0.3853,1.3315 l -0.2138,0.4096 c 0,0 8.6932,90.4463 9.0402,94.0636 -11.673,-2.316 -23.6042,-3.5386 -35.5274,-3.5386 -0.1028,0 -0.1956,0.008 -0.2905,0.0162 -0.0706,-0.008 -0.1432,-0.0162 -0.2057,-0.0162 -0.4419,0 -0.8817,0.0242 -1.3316,0.0242 -0.8897,0.008 -1.7814,0.0162 -2.6791,0.0464 -9.2521,0.2058 -18.4012,1.0955 -27.3708,2.6732 0.3631,-4.7451 7.1014,-93.1579 7.1014,-93.1579 z" /><path
                   id="path104"
                   style="fill:#0c3e6e;fill-opacity:1;fill-rule:nonzero;stroke:none"
                   d="m 272.1597,540.2073 c 0.3792,-0.4015 3.0342,-3.1432 4.3415,-4.4909 1.7976,1.7956 13.6178,13.6481 15.3205,15.3589 -25.5247,27.9376 -57.118,48.1263 -89.3105,57.1039 v -21.6815 c 25.3271,-8.4713 50.0267,-24.855 69.6485,-46.2904" /><path
                   id="path106"
                   style="fill:#0c3e6e;fill-opacity:1;fill-rule:nonzero;stroke:none"
                   d="m 37.08828,550.7283 c 1.66238,-1.6463 11.14238,-11.0093 12.93993,-12.7745 22.77501,25.7467 51.68909,43.9824 81.73699,51.5237 v 17.9512 h -7.747 C 92.66906,598.0758 61.87267,577.9639 37.08828,550.7283" /><path
                   id="path108"
                   style="fill:#0c3e6e;fill-opacity:1;fill-rule:nonzero;stroke:none"
                   d="m 260.6784,428.0491 v 2.1829 h 0.5124 c 1.9145,0 3.3328,0.2602 4.2003,0.7505 0.7324,0.4176 1.1015,1.394 1.1015,2.891 v 32.8945 c 0,1.4425 -0.3853,2.3947 -1.166,2.885 -0.8655,0.4963 -2.2616,0.7484 -4.1358,0.7484 h -0.5124 v 2.1749 h 35.3437 v -10.5755 h -2.6308 l -0.0948,0.3772 c -1.0955,3.9643 -1.8056,5.0275 -2.1445,5.312 -0.3692,0.3631 -1.2993,0.7868 -3.5306,0.7868 h -13.3898 v -15.1612 h 9.5688 c 2.316,0 3.932,0.4479 4.8217,1.3396 0.8433,0.8433 1.2689,2.2777 1.2689,4.2548 v 0.5044 h 2.4977 v -15.9177 h -2.4977 v 0.5044 c 0,1.9226 -0.4337,3.357 -1.2689,4.2548 -0.8897,0.8836 -2.5057,1.3315 -4.8217,1.3315 h -9.5688 V 434.055 c 0,-0.8594 0.1735,-1.4586 0.5366,-1.7814 0.339,-0.3308 0.8675,-0.4963 1.5293,-0.4963 l 10.5674,0.2603 c 2.7659,0 4.7833,0.6456 6.014,1.9226 1.1963,1.2609 2.4351,3.2158 3.6637,5.8083 l 0.1412,0.2844 h 3.004 l -3.2784,-12.0038 z M 77.11249,469.3846 h -0.51243 c -1.62203,0 -2.87487,-0.1351 -3.71816,-0.4176 -0.82111,-0.2683 -1.71887,-1.0954 -2.65699,-2.4512 v -0.008 c -0.18157,-0.2684 -7.87209,-12.1209 -10.97695,-16.8962 -0.07061,-0.111 -0.13517,-0.2138 -0.20578,-0.3147 -0.35305,-0.5447 -0.62944,-0.9704 -0.81908,-1.2529 -0.14123,-0.238 -0.24412,-0.3873 -0.26026,-0.4034 v -14.792 c 0,-1.4183 0.41762,-2.3644 1.2367,-2.8749 0.86751,-0.4983 2.2313,-0.7505 4.07525,-0.7505 h 0.50437 v -2.1828 H 44.42373 v 2.1828 h 0.50436 c 1.92263,0 3.33485,0.2522 4.20034,0.7425 0.73435,0.4317 1.10354,1.4102 1.10354,2.8829 v 13.9345 c -0.1735,0.2522 -13.60972,19.8437 -13.60972,19.8437 -0.76462,1.0148 -1.5837,1.733 -2.44314,2.1183 -0.96837,0.4338 -1.96298,0.6395 -2.95556,0.6395 h -0.50437 v 2.191 h 20.2068 v -2.191 h -0.50437 c -2.93942,0 -4.54733,-0.4741 -4.54733,-1.3557 0,-0.3712 0.1735,-0.7888 0.5205,-1.269 0,0 8.83442,-13.5633 9.62929,-14.7919 0.75655,1.2448 8.66092,14.2876 8.66092,14.2876 l 0.63953,1.0955 0.15737,0.7484 c 0,0.2603 -0.07062,0.6073 -0.64761,0.8978 -0.60523,0.2602 -1.69264,0.3873 -3.23801,0.3873 h -0.49629 v 2.191 H 77.11249 Z M 277.9054,528.387 c -20.2936,25.7064 -47.1277,45.0921 -75.7251,54.8807 V 517.4 c 28.8657,-15.8229 48.9696,-46.6052 48.9696,-75.1965 0,-20.465 -10.174,-42.3039 -27.3606,-59.1214 h 23.8624 V 343.6712 H 89.50166 v 39.4109 h 16.36754 c -17.17856,16.8175 -27.35256,38.6564 -27.35256,59.1214 0,30.3082 22.39576,62.6278 53.43016,77.4742 v 66.5214 c -30.0257,-7.864 -59.75084,-27.2739 -81.8964,-53.6037 -23.42866,-27.867 -36.34438,-60.3278 -36.34438,-91.4006 0,-35.487 16.93448,-72.834 46.46392,-102.4563 27.67741,-27.756 62.09916,-44.4242 95.43556,-46.4094 h 0.008 c 0.9361,-0.0545 1.8662,-0.0868 2.7962,-0.1271 0.8756,-0.0222 1.7491,-0.0383 2.6247,-0.0545 0.3551,0 0.7102,-0.0161 1.0713,-0.0161 0.6315,0 1.269,0.0161 1.9146,0.0323 0.238,0 0.4579,0.008 0.694,0.008 28.2685,0.7162 57.8988,12.2702 83.8109,32.7755 1.8137,1.3074 3.5871,2.6631 5.32,4.0672 3.5931,3.0726 7.0995,6.3106 10.513,9.7241 8.1727,8.203 15.3588,16.9829 21.5222,26.1482 1.8197,2.9152 3.5466,5.8708 5.1606,8.897 l 1.9468,3.4438 0.9866,1.7491 0.2279,-0.228 c 10.7732,20.1665 16.6117,41.6261 16.6117,62.4462 0,29.3479 -11.6871,60.3117 -32.9086,87.1922" /><path
                   id="path110"
                   style="fill:#0c3e6e;fill-opacity:1;fill-rule:nonzero;stroke:none"
                   d="m 13.98039,314.8277 c 26.70904,-40.3793 67.88522,-67.6391 114.27851,-76.7801 0,0.0464 -0.008,0.0786 -0.008,0.0786 l 1.9388,-0.3712 c 9.4336,-1.7652 19.0468,-2.782 28.6539,-3.0423 0.8755,-0.0141 1.741,-0.0303 2.6085,-0.0303 0.5589,-0.0161 1.1419,-0.0242 1.7108,-0.0242 31.7103,0.0323 62.8396,8.4794 90.0369,24.4455 26.1159,15.3286 48.0234,37.1978 63.4549,63.2511 -1.2448,1.2529 -6.3913,6.3913 -8.0618,8.0618 -29.5133,-37.331 -70.4776,-61.9418 -115.5777,-69.3197 0,0 0.0141,0.0162 0.0141,0.0162 l -0.0303,-0.0162 h 0.0162 c -10.1599,-1.8822 -20.4994,-2.8446 -30.7581,-2.8446 -26.5739,0 -52.952,6.4236 -76.38877,18.5283 -23.32577,11.2453 -44.40007,27.5201 -61.87119,48.0718 -1.92263,-1.9307 -8.66899,-8.669 -10.01665,-10.0247" /><path
                   id="path112"
                   style="fill:#0c3e6e;fill-opacity:1;fill-rule:nonzero;stroke:none"
                   d="m 93.5527,303.4574 0.7162,1.3395 2.66505,-1.4344 -8.50356,-15.8087 -2.6711,1.4344 z m 20.118,-10.3173 0.5125,1.4344 2.8526,-1.0168 -6.0745,-17.0131 -2.8527,1.0248 z m 26.6929,-4.0349 c 4.4122,0 8.5903,-5.1606 8.5903,-10.6138 0,-5.4612 -4.1781,-10.6158 -8.5903,-10.6158 -4.4202,0 -8.5984,5.1546 -8.5984,10.6158 0,5.4532 4.1782,10.6138 8.5984,10.6138 m 26.7776,-3.0403 h 3.0262 v -19.1981 h -3.0262 z m 27.7965,5.0497 c 4.4041,0 8.5822,-5.1526 8.5822,-10.6057 0,-5.4472 -4.1781,-10.6078 -8.5822,-10.6078 -4.4223,0 -8.5984,5.1606 -8.5984,10.6078 0,5.4531 4.1761,10.6057 8.5984,10.6057 m 25.9969,5.5561 7.3374,-15.8875 -2.7498,-1.2831 -7.3455,15.9016 z m 23.122,12.1692 8.5116,-15.8087 -2.6711,-1.4344 -8.5116,15.8006 z m 18.9216,14.215 9.8593,-13.5694 -2.4512,-1.7814 -9.8653,13.5633 z m 16.0529,17.1887 11.0012,-13.4524 -2.3483,-1.9307 -11.0093,13.4685 z m -211.76175,-40.5548 -2.70944,1.3638 7.74701,15.5101 0.67787,1.3477 2.7175,-1.3477 z m -19.78716,16.069 -2.2313,2.0416 12.13698,13.2547 1.02487,1.1116 2.22928,-2.0417 z M 29.56117,373.3984 C 27.22092,371.0561 9.646907,353.4821 8.133819,351.969 13.03623,343.9557 18.42685,336.4205 24.22703,329.3594 l 0.08473,0.0948 1.06521,-1.277 c 16.92642,-20.2754 37.18163,-36.3605 60.23101,-47.8499 0.39542,-0.2139 0.79689,-0.4096 1.19836,-0.6153 23.75146,-11.5217 49.91576,-17.7395 77.00206,-17.7395 62.3211,0 120.0061,32.9894 154.5953,88.2877 -1.497,1.497 -20.1826,20.1745 -23.4932,23.4912 -2.0094,-3.5144 -4.152,-7.0046 -6.4539,-10.4403 -8.7476,-13.9265 -19.8739,-26.4004 -32.7129,-36.6692 -27.3607,-23.3661 -59.759,-36.8104 -90.9649,-37.5044 -0.2461,-0.008 -0.4983,-0.008 -0.7424,-0.008 -0.5992,-0.008 -1.1822,-0.0242 -1.7794,-0.0242 h -0.3389 c -0.3087,0 -0.5911,0.0162 -0.8917,0.0162 -0.8897,0.008 -1.8036,0.0242 -2.7115,0.0544 -0.9361,0.0242 -1.8742,0.0727 -2.8285,0.1191 -0.0161,0.008 -0.0403,0.008 -0.0544,0.008 -23.5639,1.3235 -47.6623,9.7403 -70.10647,24.6109 -22.70439,15.0361 -42.41489,36.1245 -55.76436,59.4846" /><path
                   id="path114"
                   style="fill:#0c3e6e;fill-opacity:1;fill-rule:nonzero;stroke:none"
                   d="m 143.997,429.2232 h 0.4963 c 1.9469,0 3.3732,0.2522 4.2306,0.7425 0.7425,0.4559 1.1117,1.4182 1.1117,2.8829 v 32.027 c 0,1.4506 -0.3935,2.5541 -1.1823,3.349 -0.8977,0.7727 -2.2535,1.16 -4.0268,1.16 h -0.5044 v 2.191 h 47.277 v -2.191 h -0.5044 c -1.3234,0 -2.5541,-0.2925 -3.6496,-0.8755 -1.047,-0.5669 -1.5594,-1.7492 -1.5594,-3.6335 l 0.0625,-32.027 c 0,-1.4183 0.4095,-2.3564 1.2609,-2.8829 0.3631,-0.2139 0.9058,-0.3955 1.5998,-0.5286 0.7021,-0.1412 1.5373,-0.2139 2.4755,-0.2139 h 0.5043 v -2.1828 h -19.3958 v 2.1828 h 0.5044 c 1.963,0 3.3732,0.2522 4.1923,0.7425 0.7424,0.4317 1.1197,1.4021 1.1197,2.8829 v 35.0613 h -20.5296 c 0,-0.9845 0.0948,-35.0613 0.0948,-35.0613 0,-1.4183 0.4015,-2.3644 1.2448,-2.8829 0.3631,-0.2139 0.8997,-0.3955 1.5857,-0.5286 0.7081,-0.1412 1.5433,-0.2139 2.4734,-0.2139 h 0.5043 v -2.1828 H 143.997 Z m -9.0159,160.8857 0.5043,0.1251 v -72.2187 l -0.5043,-0.228 V 380.0559 H 93.04027 V 346.7055 H 244.1131 v 33.3504 h -45.4633 v 254.6568 h -79.532 c -0.813,-1.2145 -14.0212,-21.0258 -16.1718,-24.2578 h 32.0351 z" /><path
                   id="path116"
                   style="fill:#0c3e6e;fill-opacity:1;fill-rule:nonzero;stroke:none"
                   d="m 134.862,674.9831 c 0,15.3266 13.3354,30.3646 26.929,30.3646 13.5855,0 26.9289,-15.038 26.9289,-30.3646 0,-15.3286 -13.3434,-30.3727 -26.9289,-30.3727 -13.5936,0 -26.929,15.0441 -26.929,30.3727 m 62.4543,0 c 0,19.4805 -17.7617,38.961 -35.5253,38.961 -17.7637,0 -35.5253,-19.4805 -35.5253,-38.961 0,-16.0771 12.0966,-32.1057 26.3055,-37.2361 h 18.4395 c 14.2089,5.1304 26.3056,21.159 26.3056,37.2361" /><path
                   id="path118"
                   style="fill:#0c3e6e;fill-opacity:1;fill-rule:nonzero;stroke:none"
                   d="m 194.9377,272.9273 c 2.4431,0 5.5561,3.5769 5.5561,7.5816 0,4.0106 -3.113,7.5795 -5.5561,7.5795 -2.4593,0 -5.5561,-3.5689 -5.5561,-7.5795 0,-4.0047 3.0968,-7.5816 5.5561,-7.5816" /><path
                   id="path120"
                   style="fill:#0c3e6e;fill-opacity:1;fill-rule:nonzero;stroke:none"
                   d="m 363.4735,547.5689 v -14.6265 h -2.8607 v 14.6265 h -2.3402 v 2.3706 h 2.3402 v 2.9253 c 0,2.5682 1.6301,3.7423 4.4283,3.7423 0.4176,0 0.8433,-0.0323 1.2932,-0.0706 v -2.5702 c -0.3551,0.0403 -0.805,0.0726 -1.1661,0.0726 -1.2387,0 -1.6947,-0.6234 -1.6947,-1.9791 v -2.1203 h 2.8608 v -2.3706 z" /><path
                   id="path122"
                   style="fill:#0c3e6e;fill-opacity:1;fill-rule:nonzero;stroke:none"
                   d="m 376.5386,534.9599 c 4.0994,0 4.9427,4.2225 4.9427,6.5002 0,2.2696 -0.8433,6.4942 -4.9427,6.4942 -4.0894,0 -4.9327,-4.2246 -4.9327,-6.4942 0,-2.2777 0.8433,-6.5002 4.9327,-6.5002 m 0,15.4698 c 5.4309,0 7.9043,-4.5796 7.9043,-8.9696 0,-4.39 -2.4734,-8.9756 -7.9043,-8.9756 -5.4209,0 -7.8963,4.5856 -7.8963,8.9756 0,4.39 2.4754,8.9696 7.8963,8.9696" /><path
                   id="path124"
                   style="fill:#0c3e6e;fill-opacity:1;fill-rule:nonzero;stroke:none"
                   d="m 392.5612,532.9424 h -2.8527 v 16.9971 h 2.6953 v -2.8285 h 0.0625 c 1.1419,1.9852 2.6328,3.3187 4.7753,3.3187 0.3632,0 0.5205,-0.0323 0.7485,-0.0948 v -2.9637 h -1.0713 c -2.663,0 -4.3576,-2.0719 -4.3576,-4.5473 z" /><path
                   id="path126"
                   style="fill:#0c3e6e;fill-opacity:1;fill-rule:nonzero;stroke:none"
                   d="m 429.1577,549.2555 c -0.8735,4.0975 -4.2871,4.846 -6.5325,4.846 -4.2245,0 -7.636,-3.121 -7.636,-9.2682 0,-5.4855 1.9468,-9.708 7.7308,-9.708 2.0498,0 5.5864,0.9684 6.6677,6.3973 h 3.0484 c -1.2993,-8.8102 -8.4471,-9.1955 -10.1962,-9.1955 -5.3039,0 -10.4968,3.4438 -10.4968,12.4114 0,7.1881 4.0894,12.1531 10.8821,12.1531 6.014,0 9.133,-3.7363 9.5829,-7.6361 z" /><path
                   id="path128"
                   style="fill:#0c3e6e;fill-opacity:1;fill-rule:nonzero;stroke:none"
                   d="m 444.4318,534.9599 c 4.0894,0 4.9408,4.2225 4.9408,6.5002 0,2.2696 -0.8514,6.4942 -4.9408,6.4942 -4.0914,0 -4.9346,-4.2246 -4.9346,-6.4942 0,-2.2777 0.8432,-6.5002 4.9346,-6.5002 m 0,15.4698 c 5.429,0 7.8963,-4.5796 7.8963,-8.9696 0,-4.39 -2.4673,-8.9756 -7.8963,-8.9756 -5.4309,0 -7.8963,4.5856 -7.8963,8.9756 0,4.39 2.4654,8.9696 7.8963,8.9696" /><path
                   id="path130"
                   style="fill:#0c3e6e;fill-opacity:1;fill-rule:nonzero;stroke:none"
                   d="m 457.2063,549.9395 h 2.6954 v -2.4028 h 0.0625 c 0.6153,0.9058 2.08,2.893 5.1384,2.893 3.0565,0 4.0269,-1.852 4.5151,-2.7679 1.4344,1.5937 2.5682,2.7679 5.201,2.7679 1.8217,0 5.2655,-0.9462 5.2655,-5.7215 v -11.7658 h -2.8607 v 10.985 c 0,2.3403 -0.7182,3.9321 -3.1452,3.9321 -2.4109,0 -4.0026,-2.2697 -4.0026,-4.5474 v -10.3697 h -2.8608 v 11.7658 c 0,1.4263 -0.5528,3.1513 -2.6731,3.1513 -1.614,0 -4.4747,-1.039 -4.4747,-5.6509 v -9.2662 h -2.8608 z" /><path
                   id="path132"
                   style="fill:#0c3e6e;fill-opacity:1;fill-rule:nonzero;stroke:none"
                   d="m 493.0544,534.9276 c 3.121,0 4.5796,2.8204 4.5796,6.5648 0,2.1748 -0.2299,6.3671 -4.6502,6.3671 -4.1216,0 -4.5776,-4.4526 -4.5776,-7.2185 0,-4.515 2.8285,-5.7134 4.6482,-5.7134 m -7.3838,15.0119 h 2.7033 v -2.4028 h 0.0626 c 0.6778,0.9683 1.9791,2.893 5.0678,2.893 4.5151,0 7.0853,-3.704 7.0853,-8.4874 0,-4.0591 -1.6866,-9.4901 -7.4706,-9.4901 -2.2777,0 -3.7767,1.0813 -4.5171,2.2777 h -0.0706 v -8.5096 h -2.8607 z" /><path
                   id="path134"
                   style="fill:#0c3e6e;fill-opacity:1;fill-rule:nonzero;stroke:none"
                   d="m 516.6727,532.9424 v 2.4734 l -0.0544,0.0626 c -1.2065,-1.9771 -2.6711,-3.0262 -5.3987,-3.0262 -2.5057,0 -5.5238,1.2064 -5.5238,5.2736 v 12.2137 h 2.8607 v -11.2756 c 0,-2.7901 1.4264,-3.7363 3.2784,-3.7363 3.6092,0 4.6805,3.1835 4.6805,5.6589 v 9.353 h 2.8607 v -16.9971 z" /><path
                   id="path136"
                   style="fill:#0c3e6e;fill-opacity:1;fill-rule:nonzero;stroke:none"
                   d="m 528.8016,547.5689 v -11.0495 c 0,-1.3316 1.1359,-1.3316 1.7189,-1.3316 h 1.0087 v -2.2454 c -1.041,-0.0948 -1.852,-0.23 -2.1445,-0.23 -2.8285,0 -3.4438,1.5918 -3.4438,3.6415 v 11.215 h -2.31 v 2.3706 h 2.31 v 4.745 h 2.8607 v -4.745 h 2.7276 v -2.3706 z" /><path
                   id="path138"
                   style="fill:#0c3e6e;fill-opacity:1;fill-rule:nonzero;stroke:none"
                   d="m 538.8728,532.9424 h -2.8527 v 16.9971 h 2.8527 z m -2.8527,23.3339 h 2.8527 v -3.2461 h -2.8527 z" /><path
                   id="path140"
                   style="fill:#0c3e6e;fill-opacity:1;fill-rule:nonzero;stroke:none"
                   d="m 558.6377,532.9424 h -2.8607 v 10.4645 c 0,2.9556 -0.8433,4.4526 -3.6415,4.4526 -1.6301,0 -4.4828,-1.039 -4.4828,-5.6509 v -9.2662 h -2.8607 v 16.9971 h 2.6953 v -2.4028 h 0.0625 c 0.6153,0.9058 2.2071,2.893 5.1385,2.893 2.6327,0 5.9494,-1.0733 5.9494,-5.9192 z" /><path
                   id="path142"
                   style="fill:#0c3e6e;fill-opacity:1;fill-rule:nonzero;stroke:none"
                   d="m 571.2085,534.9276 c 1.8197,0 4.6482,1.1984 4.6482,5.7134 0,2.7659 -0.456,7.2185 -4.5776,7.2185 -4.4223,0 -4.6502,-4.1923 -4.6502,-6.3671 0,-3.7444 1.4666,-6.5648 4.5796,-6.5648 m 7.3838,-0.583 c 0,-2.4432 -0.0322,-8.55 -7.8963,-8.55 -2.0174,0 -5.9514,0.5508 -6.5022,5.0658 h 2.8607 c 0.5205,-2.6953 3.1452,-2.6953 3.8292,-2.6953 4.9427,0 4.8479,3.9643 4.8479,5.9737 v 0.7263 h -0.0646 v -0.1352 c -0.7484,-1.1964 -2.2454,-2.2777 -4.5231,-2.2777 -5.784,0 -7.4706,5.431 -7.4706,9.4901 0,4.7834 2.5622,8.4874 7.0853,8.4874 3.0887,0 4.39,-1.9247 5.0678,-2.893 h 0.0706 v 2.4028 h 2.6953 z" /><path
                   id="path144"
                   style="fill:#0c3e6e;fill-opacity:1;fill-rule:nonzero;stroke:none"
                   d="m 370.3046,502.6242 c -0.4559,-0.3612 -1.1741,-0.6214 -4.7107,-1.0713 -1.3961,-0.1977 -3.6496,-0.6234 -3.6496,-2.7659 0,-1.852 0.9462,-2.9556 3.0968,-2.9556 2.663,0 5.2635,1.7189 5.2635,3.9966 z m -10.4645,3.1452 c 0.1271,4.0651 2.8285,5.6589 7.0147,5.6589 1.3698,0 6.3045,-0.3873 6.3045,-4.745 v -9.7806 c 0,-0.7162 0.3611,-1.0087 0.9442,-1.0087 0.2602,0 0.6153,0.0645 0.9462,0.1271 v -2.08 c -0.4882,-0.1271 -0.9139,-0.3248 -1.5595,-0.3248 -2.538,0 -2.9253,1.3012 -3.0262,2.6004 -1.1035,-1.2044 -2.8224,-2.7659 -6.1391,-2.7659 -3.121,0 -5.3362,1.9872 -5.3362,4.9105 0,1.4344 0.4257,4.745 5.1708,5.3341 l 4.7127,0.5851 c 0.684,0.0625 1.497,0.3228 1.497,2.0174 0,1.7794 -1.3013,2.7579 -4.0047,2.7579 -3.246,0 -3.6959,-1.9872 -3.8916,-3.2864 z" /><path
                   id="path146"
                   style="fill:#0c3e6e;fill-opacity:1;fill-rule:nonzero;stroke:none"
                   d="m 391.04,493.9411 h -2.8608 v 10.4645 c 0,2.9636 -0.8432,4.4606 -3.6415,4.4606 -1.6301,0 -4.4827,-1.0491 -4.4827,-5.659 v -9.2661 h -2.8608 v 17.0051 h 2.6933 v -2.4109 h 0.0646 c 0.6214,0.9139 2.2131,2.893 5.1384,2.893 2.6308,0 5.9495,-1.0733 5.9495,-5.9111 z" /><path
                   id="path148"
                   style="fill:#0c3e6e;fill-opacity:1;fill-rule:nonzero;stroke:none"
                   d="m 401.0082,495.9343 c 1.8218,0 4.6502,1.1903 4.6502,5.7134 0,2.7579 -0.4579,7.2104 -4.5796,7.2104 -4.4202,0 -4.6482,-4.1923 -4.6482,-6.3671 0,-3.7363 1.4647,-6.5567 4.5776,-6.5567 m 7.5433,-1.9932 h -2.6953 v 2.3483 h -0.0646 c -1.2367,-2.31 -3.1916,-2.8386 -4.8459,-2.8386 -5.7841,0 -7.4706,5.431 -7.4706,9.4962 0,4.7773 2.5601,8.4813 7.0852,8.4813 3.0888,0 4.3799,-1.9246 5.0659,-2.893 l 0.0706,0.228 v 8.5116 h 2.8547 z" /><path
                   id="path150"
                   style="fill:#0c3e6e;fill-opacity:1;fill-rule:nonzero;stroke:none"
                   d="m 421.5842,517.283 h 3.1513 v -23.3419 h -3.1513 z" /><path
                   id="path152"
                   style="fill:#0c3e6e;fill-opacity:1;fill-rule:nonzero;stroke:none"
                   d="m 443.6188,493.9411 h -2.8607 v 10.4645 c 0,2.9636 -0.8433,4.4606 -3.6395,4.4606 -1.6241,0 -4.4848,-1.0491 -4.4848,-5.659 v -9.2661 h -2.8608 v 17.0051 h 2.7034 v -2.4109 h 0.0626 c 0.6153,0.9139 2.2071,2.893 5.1384,2.893 2.6247,0 5.9414,-1.0733 5.9414,-5.9111 z" /><path
                   id="path154"
                   style="fill:#0c3e6e;fill-opacity:1;fill-rule:nonzero;stroke:none"
                   d="m 451.39,508.5676 v -14.6265 h -2.8688 v 14.6265 h -2.3322 v 2.3786 h 2.3322 v 2.9172 c 0,2.5682 1.6321,3.7424 4.4202,3.7424 0.4257,0 0.8514,-0.0323 1.3094,-0.0706 v -2.5622 c -0.3632,0.0323 -0.811,0.0645 -1.1742,0.0645 -1.2306,0 -1.6866,-0.6233 -1.6866,-1.9791 v -2.1122 h 2.8608 v -2.3786 z" /><path
                   id="path156"
                   style="fill:#0c3e6e;fill-opacity:1;fill-rule:nonzero;stroke:none"
                   d="m 462.8249,495.9585 c 4.0975,0 4.9408,4.2306 4.9408,6.5002 0,2.2777 -0.8433,6.5023 -4.9408,6.5023 -4.0893,0 -4.9326,-4.2246 -4.9326,-6.5023 0,-2.2696 0.8433,-6.5002 4.9326,-6.5002 m 0,15.4698 c 5.429,0 7.9044,-4.5796 7.9044,-8.9696 0,-4.3899 -2.4754,-8.9756 -7.9044,-8.9756 -5.4229,0 -7.8882,4.5857 -7.8882,8.9756 0,4.39 2.4653,8.9696 7.8882,8.9696" /><path
                   id="path158"
                   style="fill:#0c3e6e;fill-opacity:1;fill-rule:nonzero;stroke:none"
                   d="m 477.2235,493.9411 h -2.8527 v 17.0051 h 2.6873 v -2.8366 h 0.0706 c 1.1418,1.9852 2.6307,3.3187 4.7753,3.3187 0.355,0 0.5205,-0.0323 0.7485,-0.0948 v -2.9636 h -1.0713 c -2.6651,0 -4.3577,-2.072 -4.3577,-4.5474 z" /><path
                   id="path160"
                   style="fill:#0c3e6e;fill-opacity:1;fill-rule:nonzero;stroke:none"
                   d="m 485.608,510.9462 h 2.7034 v -2.4109 h 0.0625 c 0.6154,0.9139 2.08,2.893 5.1304,2.893 3.0585,0 4.0349,-1.852 4.5231,-2.7679 1.4264,1.5998 2.5622,2.7679 5.193,2.7679 1.8298,0 5.2736,-0.9381 5.2736,-5.7215 v -11.7657 h -2.8608 v 10.985 c 0,2.3483 -0.7182,3.9401 -3.1613,3.9401 -2.4028,0 -3.9865,-2.2777 -3.9865,-4.5554 v -10.3697 h -2.8688 v 11.7657 c 0,1.4264 -0.5528,3.1594 -2.6651,3.1594 -1.622,0 -4.4827,-1.0491 -4.4827,-5.659 v -9.2661 h -2.8608 z" /><path
                   id="path162"
                   style="fill:#0c3e6e;fill-opacity:1;fill-rule:nonzero;stroke:none"
                   d="m 523.0479,502.6242 c -0.456,-0.3612 -1.1742,-0.6214 -4.7108,-1.0713 -1.3961,-0.1977 -3.6415,-0.6234 -3.6415,-2.7659 0,-1.852 0.9462,-2.9556 3.0887,-2.9556 2.6631,0 5.2636,1.7189 5.2636,3.9966 z m -10.4645,3.1452 c 0.125,4.0651 2.8284,5.6589 7.0207,5.6589 1.3638,0 6.3045,-0.3873 6.3045,-4.745 v -9.7806 c 0,-0.7162 0.3551,-1.0087 0.9462,-1.0087 0.2522,0 0.6153,0.0645 0.9381,0.1271 v -2.08 c -0.4882,-0.1271 -0.9139,-0.3248 -1.5595,-0.3248 -2.5379,0 -2.9253,1.3012 -3.0201,2.6004 -1.1096,-1.2044 -2.8285,-2.7659 -6.1452,-2.7659 -3.1209,0 -5.328,1.9872 -5.328,4.9105 0,1.4344 0.4176,4.745 5.1626,5.3341 l 4.7188,0.5851 c 0.6779,0.0625 1.4909,0.3228 1.4909,2.0174 0,1.7794 -1.3012,2.7579 -3.9965,2.7579 -3.2461,0 -3.7041,-1.9872 -3.8998,-3.2864 z" /><path
                   id="path164"
                   style="fill:#0c3e6e;fill-opacity:1;fill-rule:nonzero;stroke:none"
                   d="M 534.2629,508.5676 V 497.518 c 0,-1.3315 1.1358,-1.3315 1.7189,-1.3315 h 1.0087 v -2.2454 c -1.041,-0.0949 -1.852,-0.222 -2.1446,-0.222 -2.8284,0 -3.4438,1.5918 -3.4438,3.6335 v 11.215 h -2.3079 v 2.3786 h 2.3079 v 4.7369 h 2.8608 v -4.7369 h 2.7276 v -2.3786 z" /><path
                   id="path166"
                   style="fill:#0c3e6e;fill-opacity:1;fill-rule:nonzero;stroke:none"
                   d="m 542.712,493.9411 h -2.8608 v 17.0051 h 2.8608 z m -2.8608,23.3419 h 2.8608 v -3.2542 h -2.8608 z" /><path
                   id="path168"
                   style="fill:#0c3e6e;fill-opacity:1;fill-rule:nonzero;stroke:none"
                   d="m 553.925,495.9585 c 4.0893,0 4.9326,4.2306 4.9326,6.5002 0,2.2777 -0.8433,6.5023 -4.9326,6.5023 -4.0975,0 -4.9408,-4.2246 -4.9408,-6.5023 0,-2.2696 0.8433,-6.5002 4.9408,-6.5002 m 0,15.4698 c 5.4309,0 7.8882,-4.5796 7.8882,-8.9696 0,-4.3899 -2.4573,-8.9756 -7.8882,-8.9756 -5.429,0 -7.9044,4.5857 -7.9044,8.9756 0,4.39 2.4754,8.9696 7.9044,8.9696" /><path
                   id="path170"
                   style="fill:#0c3e6e;fill-opacity:1;fill-rule:nonzero;stroke:none"
                   d="m 578.9151,493.9411 h -2.8607 v 10.4645 c 0,2.9636 -0.8433,4.4606 -3.6415,4.4606 -1.622,0 -4.4828,-1.0491 -4.4828,-5.659 v -9.2661 h -2.8607 v 17.0051 h 2.6953 v -2.4109 h 0.0706 c 0.6133,0.9139 2.2051,2.893 5.1304,2.893 2.6388,0 5.9494,-1.0733 5.9494,-5.9111 z" /><path
                   id="path172"
                   style="fill:#0c3e6e;fill-opacity:1;fill-rule:nonzero;stroke:none"
                   d="m 363.6067,457.6411 h 6.1088 c 4.0975,0 6.7605,3.2238 6.7605,9.1027 0,5.8789 -2.6953,8.8425 -6.9905,8.8425 h -5.8788 z m -3.1513,20.6405 h 9.4558 c 6.0766,0 9.8109,-4.6179 9.8109,-11.3482 0,-5.2252 -2.2696,-11.9877 -9.936,-11.9877 h -9.3307 z" /><path
                   id="path174"
                   style="fill:#0c3e6e;fill-opacity:1;fill-rule:nonzero;stroke:none"
                   d="m 386.3272,454.9457 h -2.8607 v 16.991 h 2.8607 z m -2.8607,23.3359 h 2.8607 v -3.2541 h -2.8607 z" /><path
                   id="path176"
                   style="fill:#0c3e6e;fill-opacity:1;fill-rule:nonzero;stroke:none"
                   d="m 400.2678,467.0989 c -0.0383,1.0712 -0.4257,2.8607 -4.0349,2.8607 -0.8756,0 -3.3812,-0.2925 -3.3812,-2.4048 0,-1.4021 0.8836,-1.7249 3.0907,-2.2757 l 2.8607,-0.7182 c 3.5447,-0.8756 4.7754,-2.1667 4.7754,-4.4848 0,-3.5063 -2.8931,-5.6186 -6.7222,-5.6186 -6.7302,0 -7.2184,3.9018 -7.3133,5.9495 h 2.7579 c 0.1029,-1.3315 0.4882,-3.4741 4.5231,-3.4741 2.0417,0 3.9018,0.8111 3.9018,2.6954 0,1.3637 -0.9462,1.8197 -3.3813,2.435 l -3.3187,0.811 c -2.3705,0.5831 -3.932,1.7895 -3.932,4.1217 0,3.7444 3.0887,5.437 6.4377,5.437 6.0685,0 6.5022,-4.4828 6.5022,-5.3341 z" /><path
                   id="path178"
                   style="fill:#0c3e6e;fill-opacity:1;fill-rule:nonzero;stroke:none"
                   d="m 417.4868,466.2233 c -0.3551,2.2777 -1.6221,3.6415 -4.0269,3.6415 -3.5467,0 -4.6805,-3.3812 -4.6805,-6.3994 0,-2.9313 0.7162,-6.5325 4.6503,-6.5325 1.9145,0 3.5769,1.4264 4.0571,4.0269 h 2.7659 c -0.2905,-2.6953 -1.9469,-6.5023 -6.9259,-6.5023 -4.7753,0 -7.6058,3.6092 -7.6058,8.5117 0,5.2635 2.5379,9.4557 8.1565,9.4557 4.4606,0 6.1472,-3.246 6.3752,-6.2016 z" /><path
                   id="path180"
                   style="fill:#0c3e6e;fill-opacity:1;fill-rule:nonzero;stroke:none"
                   d="m 426.0387,454.9457 h -2.8607 v 16.991 h 2.8607 z m -2.8607,23.3359 h 2.8607 v -3.2541 h -2.8607 z" /><path
                   id="path182"
                   style="fill:#0c3e6e;fill-opacity:1;fill-rule:nonzero;stroke:none"
                   d="m 437.4716,456.9329 c 3.121,0 4.5877,2.8204 4.5877,6.5568 0,2.1828 -0.228,6.3751 -4.6502,6.3751 -4.1217,0 -4.5776,-4.4606 -4.5776,-7.2184 0,-4.5151 2.8285,-5.7135 4.6401,-5.7135 m -7.3758,15.0038 h 2.6953 v -2.3947 h 0.0707 c 0.6778,0.9684 1.9791,2.891 5.0678,2.891 4.5231,0 7.0853,-3.704 7.0853,-8.4874 0,-4.0571 -1.6866,-9.4881 -7.4706,-9.4881 -2.2777,0 -3.7686,1.0733 -4.5252,2.2697 h -0.0625 v -8.5117 h -2.8608 z" /><path
                   id="path184"
                   style="fill:#0c3e6e;fill-opacity:1;fill-rule:nonzero;stroke:none"
                   d="m 448.4667,478.2816 h 2.8527 v -23.3338 h -2.8527 z" /><path
                   id="path186"
                   style="fill:#0c3e6e;fill-opacity:1;fill-rule:nonzero;stroke:none"
                   d="m 458.5379,454.9457 h -2.8608 v 16.991 h 2.8608 z m -2.8608,23.3359 h 2.8608 v -3.2541 h -2.8608 z" /><path
                   id="path188"
                   style="fill:#0c3e6e;fill-opacity:1;fill-rule:nonzero;stroke:none"
                   d="M 476.6707,454.9457 H 473.81 v 10.4666 c 0,2.9556 -0.8433,4.4525 -3.6415,4.4525 -1.6221,0 -4.4828,-1.041 -4.4828,-5.659 v -9.2601 h -2.8608 v 16.9991 h 2.6954 v -2.4109 h 0.0706 c 0.6153,0.9139 2.2071,2.891 5.1303,2.891 2.6328,0 5.9495,-1.0712 5.9495,-5.9091 z" /><path
                   id="path190"
                   style="fill:#0c3e6e;fill-opacity:1;fill-rule:nonzero;stroke:none"
                   d="m 492.5985,464.7889 c -0.1654,2.6408 -1.269,5.0759 -4.7451,5.0759 -2.6388,0 -4.7127,-2.4351 -4.7127,-5.0759 z m 2.7256,-4.5151 c -0.0949,-0.811 -0.8817,-3.2158 -3.0262,-4.6502 -0.7788,-0.5185 -1.8823,-1.1661 -4.6099,-1.1661 -4.7834,0 -7.6038,3.6092 -7.6038,8.5117 0,5.2635 2.5279,9.4557 8.1566,9.4557 4.9084,0 7.3133,-3.8916 7.3133,-9.9137 h -12.4134 c 0,-3.5366 1.6543,-5.5783 4.9347,-5.5783 2.6933,0 4.2931,2.072 4.3879,3.3409 z" /><path
                   id="path192"
                   style="fill:#0c3e6e;fill-opacity:1;fill-rule:nonzero;stroke:none"
                   d="m 508.6191,467.0989 c -0.0323,1.0712 -0.4257,2.8607 -4.0349,2.8607 -0.8736,0 -3.3813,-0.2925 -3.3813,-2.4048 0,-1.4021 0.8837,-1.7249 3.0907,-2.2757 l 2.8608,-0.7182 c 3.5447,-0.8756 4.7753,-2.1667 4.7753,-4.4848 0,-3.5063 -2.893,-5.6186 -6.7221,-5.6186 -6.7303,0 -7.2185,3.9018 -7.3133,5.9495 h 2.7578 c 0.1029,-1.3315 0.4883,-3.4741 4.5232,-3.4741 2.0497,0 3.9017,0.8111 3.9017,2.6954 0,1.3637 -0.9462,1.8197 -3.3812,2.435 l -3.3187,0.811 c -2.3786,0.5831 -3.932,1.7895 -3.932,4.1217 0,3.7444 3.0887,5.437 6.4397,5.437 6.0664,0 6.5002,-4.4828 6.5002,-5.3341 z" /></g></g></g></g><g
           transform="matrix(2.017451,0,0,2.017451,-113,-256)"
           id="g202"><text
             id="text206"
             style="font-variant:normal;font-size:27.06979942px;font-family:CairoFont-0;-inkscape-font-specification:CairoFont-0-0;writing-mode:lr-tb;fill:#ffffff;fill-opacity:1;fill-rule:nonzero;stroke:none"
             transform="matrix(1,0,0,-1,1936.699,705.2305)"><tspan
               id="tspan204"
               y="0"
               x="0 19.544395 34.595203 48.130104 54.139599 60.149097 75.199905 90.25071 97.776115 115.83167 121.84117 129.36658 147.42213 162.47295 176.00784 182.01733 188.02682 203.07764">Upsilon Pi Epsilon</tspan></text>
</g><g
           transform="matrix(2.017451,0,0,2.017451,-113,-256)"
           id="g208"><text
             id="text212"
             style="font-variant:normal;font-size:27.06979942px;font-family:CairoFont-0;-inkscape-font-specification:CairoFont-0-0;writing-mode:lr-tb;fill:#ffffff;fill-opacity:1;fill-rule:nonzero;stroke:none"
             transform="matrix(1,0,0,-1,1960.764,672.6655)"><tspan
               id="tspan210"
               y="0"
               x="0 19.544395 34.595203 49.646011 64.696823 73.711067 81.236473 99.292023 114.34283 127.87774 133.88724 148.93803 156.46344">Honor Society</tspan></text>
</g><g
           transform="matrix(2.017451,0,0,2.017451,-113,-256)"
           id="g214"><text
             id="text218"
             style="font-variant:normal;font-size:22.73859978px;font-family:CairoFont-0;-inkscape-font-specification:CairoFont-0-0;writing-mode:lr-tb;fill:#ffffff;fill-opacity:1;fill-rule:nonzero;stroke:none"
             transform="matrix(1,0,0,-1,1952.58,180.0771)"><tspan
               id="tspan216"
               y="0"
               x="0 5.639173 18.281834 25.853788 32.175117 48.592388 61.23505 80.1763 92.818962 105.46162 111.78296 116.83092 129.47359 142.11626 148.43758 161.08025 173.7229">for Computing and</tspan></text>
</g><g
           transform="matrix(2.017451,0,0,2.017451,-113,-256)"
           id="g220"><text
             id="text224"
             style="font-variant:normal;font-size:22.73859978px;font-family:CairoFont-0;-inkscape-font-specification:CairoFont-0-0;writing-mode:lr-tb;fill:#ffffff;fill-opacity:1;fill-rule:nonzero;stroke:none"
             transform="matrix(1,0,0,-1,1931.478,152.8363)"><tspan
               id="tspan222"
               y="0"
               x="0 6.321331 18.963993 24.603165 37.245827 45.386246 64.327499 76.970161 83.291489 88.339462 100.98212 113.62479 119.94611 136.36339 141.41135 152.78065 164.14995 169.19792 181.84059 186.88855 191.93652 204.57918 217.22185">Information Disciplines</tspan></text>
</g></g></g></g></svg>